<svg id="Layer_1" data-name="Layer 1" xmlns="http://www.w3.org/2000/svg" xmlns:xlink="http://www.w3.org/1999/xlink" viewBox="0 0 473.53 70.92"><defs><style>.cls-1{fill:url(#linear-gradient);}.cls-2{fill:url(#linear-gradient-2);}.cls-3{fill:url(#linear-gradient-3);}.cls-4{fill:url(#linear-gradient-4);}.cls-5{fill:url(#linear-gradient-5);}.cls-6{fill:url(#linear-gradient-6);}.cls-7{fill:url(#linear-gradient-7);}.cls-8{fill:url(#linear-gradient-8);}.cls-9{fill:url(#linear-gradient-9);}.cls-10{fill:url(#linear-gradient-10);}.cls-11{fill:url(#linear-gradient-11);}.cls-12{fill:url(#linear-gradient-12);}.cls-13{fill:url(#radial-gradient);}.cls-14{fill:url(#radial-gradient-2);}.cls-15{fill:url(#radial-gradient-3);}.cls-16{fill:url(#linear-gradient-13);}</style><linearGradient id="linear-gradient" x1="182.8" y1="414.3" x2="182.8" y2="371.7" gradientUnits="userSpaceOnUse"><stop offset="0" stop-color="#696f77"/><stop offset="1" stop-color="#3a3f41"/></linearGradient><linearGradient id="linear-gradient-2" x1="218.14" y1="414.9" x2="218.14" y2="382.38" xlink:href="#linear-gradient"/><linearGradient id="linear-gradient-3" x1="251.23" y1="414.3" x2="251.23" y2="382.92" xlink:href="#linear-gradient"/><linearGradient id="linear-gradient-4" x1="284.5" y1="414.9" x2="284.5" y2="382.38" xlink:href="#linear-gradient"/><linearGradient id="linear-gradient-5" x1="318.73" y1="414.9" x2="318.73" y2="382.38" xlink:href="#linear-gradient"/><linearGradient id="linear-gradient-6" x1="347.05" y1="414.78" x2="347.05" y2="370.5" xlink:href="#linear-gradient"/><linearGradient id="linear-gradient-7" x1="389.05" y1="414.3" x2="389.05" y2="371.7" xlink:href="#linear-gradient"/><linearGradient id="linear-gradient-8" x1="428.44" y1="414.9" x2="428.44" y2="382.56" xlink:href="#linear-gradient"/><linearGradient id="linear-gradient-9" x1="461.22" y1="414.9" x2="461.22" y2="382.56" xlink:href="#linear-gradient"/><linearGradient id="linear-gradient-10" x1="488.1" y1="414.66" x2="488.1" y2="370.5" xlink:href="#linear-gradient"/><linearGradient id="linear-gradient-11" x1="503.46" y1="414.66" x2="503.46" y2="372.42" xlink:href="#linear-gradient"/><linearGradient id="linear-gradient-12" x1="530.01" y1="414.3" x2="530.01" y2="370.5" xlink:href="#linear-gradient"/><radialGradient id="radial-gradient" cx="41.64" cy="35.46" r="6.37" gradientUnits="userSpaceOnUse"><stop offset="0" stop-color="#32b44a"/><stop offset="1" stop-color="#0c9547"/></radialGradient><radialGradient id="radial-gradient-2" cx="35.46" cy="35.46" r="7.49" xlink:href="#radial-gradient"/><radialGradient id="radial-gradient-3" cx="29.27" cy="35.46" r="6.37" xlink:href="#radial-gradient"/><linearGradient id="linear-gradient-13" x1="104.7" y1="430.92" x2="104.7" y2="360" gradientUnits="userSpaceOnUse"><stop offset="0" stop-color="#d19a2a"/><stop offset="1" stop-color="#e8ba20"/></linearGradient></defs><title>logo</title><path class="cls-1" d="M166.09,414.3V371.7h18.54a11.83,11.83,0,0,1,5.31,1.2,13.59,13.59,0,0,1,4.17,3.15,14.85,14.85,0,0,1,2.73,4.44,13.61,13.61,0,0,1,1,5.07,14.2,14.2,0,0,1-.6,4.14,14.51,14.51,0,0,1-1.68,3.66,11.82,11.82,0,0,1-2.64,2.91,10.88,10.88,0,0,1-3.42,1.83l10,16.2h-7.62l-9.24-14.82h-9.84V414.3Zm6.72-20.76h11.76a5.42,5.42,0,0,0,2.61-.63,6.18,6.18,0,0,0,2-1.74,8.8,8.8,0,0,0,1.32-2.55,9.61,9.61,0,0,0,.48-3.06,8.24,8.24,0,0,0-.57-3.06,8.77,8.77,0,0,0-1.5-2.52,7.11,7.11,0,0,0-2.16-1.71,5.53,5.53,0,0,0-2.55-.63h-11.4Z" transform="translate(-69.24 -360)"/><path class="cls-2" d="M218.23,414.9a16.69,16.69,0,0,1-6.66-1.29,15.5,15.5,0,0,1-5.13-3.51,15.82,15.82,0,0,1-3.3-5.16A16.72,16.72,0,0,1,202,398.7a17,17,0,0,1,1.17-6.27,16.09,16.09,0,0,1,3.3-5.22,15.28,15.28,0,0,1,5.13-3.54,16.85,16.85,0,0,1,6.72-1.29,16.15,16.15,0,0,1,6.63,1.32,15.85,15.85,0,0,1,5.07,3.51,15,15,0,0,1,3.21,5.1,16.94,16.94,0,0,1,1.11,6.09q0,.72-.06,1.35t-.12,1.05H209a10.74,10.74,0,0,0,1,3.78,10,10,0,0,0,2.1,2.91,9.22,9.22,0,0,0,6.39,2.55,10.49,10.49,0,0,0,2.61-.33,9.2,9.2,0,0,0,2.37-1,8.4,8.4,0,0,0,1.92-1.53,7.14,7.14,0,0,0,1.32-2l5.64,1.62a13.08,13.08,0,0,1-5.37,5.79A16.64,16.64,0,0,1,218.23,414.9Zm9.54-18.66a10.55,10.55,0,0,0-1-3.66,9.42,9.42,0,0,0-2.07-2.85,9.24,9.24,0,0,0-2.94-1.83,9.59,9.59,0,0,0-3.54-.66,9.39,9.39,0,0,0-6.42,2.49,9,9,0,0,0-2,2.85,11,11,0,0,0-1,3.66Z" transform="translate(-69.24 -360)"/><path class="cls-3" d="M247.69,414.3l-12-31.38h6.78l9,25.8,9.06-25.8h6.24l-12,31.38Z" transform="translate(-69.24 -360)"/><path class="cls-4" d="M284.59,414.9a16.69,16.69,0,0,1-6.66-1.29,15.5,15.5,0,0,1-5.13-3.51,15.82,15.82,0,0,1-3.3-5.16,16.72,16.72,0,0,1-1.17-6.24,17,17,0,0,1,1.17-6.27,16.09,16.09,0,0,1,3.3-5.22,15.28,15.28,0,0,1,5.13-3.54,16.85,16.85,0,0,1,6.72-1.29,16.15,16.15,0,0,1,6.63,1.32,15.85,15.85,0,0,1,5.07,3.51,15,15,0,0,1,3.21,5.1,16.94,16.94,0,0,1,1.11,6.09q0,.72-.06,1.35t-.12,1.05H275.35a10.74,10.74,0,0,0,1,3.78,10,10,0,0,0,2.1,2.91,9.22,9.22,0,0,0,6.39,2.55,10.49,10.49,0,0,0,2.61-.33,9.2,9.2,0,0,0,2.37-1,8.4,8.4,0,0,0,1.92-1.53,7.14,7.14,0,0,0,1.32-2l5.64,1.62a13.08,13.08,0,0,1-5.37,5.79A16.64,16.64,0,0,1,284.59,414.9Zm9.54-18.66a10.55,10.55,0,0,0-1-3.66,9.42,9.42,0,0,0-2.07-2.85,9.24,9.24,0,0,0-2.94-1.83,9.59,9.59,0,0,0-3.54-.66,9.39,9.39,0,0,0-6.42,2.49,9,9,0,0,0-2,2.85,11,11,0,0,0-1,3.66Z" transform="translate(-69.24 -360)"/><path class="cls-5" d="M314.41,414.9a11.68,11.68,0,0,1-4.23-.75,10.22,10.22,0,0,1-3.36-2.07A9.65,9.65,0,0,1,304.6,409a9.39,9.39,0,0,1-.81-3.9,8.41,8.41,0,0,1,1-4,9.4,9.4,0,0,1,2.73-3.12,13.25,13.25,0,0,1,4.2-2,18.86,18.86,0,0,1,5.37-.72,24.6,24.6,0,0,1,4.38.39,22.06,22.06,0,0,1,3.9,1.05v-2.16a7.28,7.28,0,0,0-2-5.43,7.79,7.79,0,0,0-5.7-1.95,13.74,13.74,0,0,0-4.95.93,25,25,0,0,0-5,2.67l-2-4.2a22.25,22.25,0,0,1,12.6-4.08q6.48,0,10.08,3.3t3.6,9.48V406.5q0,2.1,1.74,2.16v5.64q-1,.18-1.65.24t-1.35.06a4.24,4.24,0,0,1-3-1,4.1,4.1,0,0,1-1.29-2.46l-.18-2a14,14,0,0,1-5.19,4.23A15.24,15.24,0,0,1,314.41,414.9Zm1.8-4.86a11.86,11.86,0,0,0,4.53-.87,7.81,7.81,0,0,0,3.33-2.43,3,3,0,0,0,1.26-2.28v-4.14a20,20,0,0,0-3.57-1,19.7,19.7,0,0,0-3.69-.36,10.09,10.09,0,0,0-5.79,1.53,4.69,4.69,0,0,0-2.25,4,5.11,5.11,0,0,0,1.74,3.93A6.33,6.33,0,0,0,316.21,410Z" transform="translate(-69.24 -360)"/><path class="cls-6" d="M340,370.5h6.6v34.74a3.91,3.91,0,0,0,.9,2.73,3.23,3.23,0,0,0,2.52,1,5.85,5.85,0,0,0,1.53-.24q.87-.24,1.65-.54l1,5.16a15.36,15.36,0,0,1-3.42,1.05,18.53,18.53,0,0,1-3.54.39,7.25,7.25,0,0,1-5.31-1.86,7.08,7.08,0,0,1-1.89-5.28Z" transform="translate(-69.24 -360)"/><path class="cls-7" d="M405.55,371.7v42.6h-3.06V393.9H375.61v20.4h-3.06V371.7h3.06v19.44h26.88V371.7Z" transform="translate(-69.24 -360)"/><path class="cls-8" d="M428.59,414.9a14.47,14.47,0,0,1-6.12-1.29,15,15,0,0,1-4.89-3.54,16.82,16.82,0,0,1-4.41-11.49,16.53,16.53,0,0,1,4.38-11.31,14.92,14.92,0,0,1,4.83-3.45,15.11,15.11,0,0,1,12.15,0,15.21,15.21,0,0,1,4.86,3.48,15.92,15.92,0,0,1,3.18,5.1,16.71,16.71,0,0,1,1.14,6.15v.75a1.92,1.92,0,0,1-.06.57H416.29a14.21,14.21,0,0,0,4,9,12.29,12.29,0,0,0,3.81,2.64,11.21,11.21,0,0,0,4.62,1,11.47,11.47,0,0,0,3.18-.45,13.18,13.18,0,0,0,2.91-1.23,10.54,10.54,0,0,0,2.4-1.89,9.09,9.09,0,0,0,1.65-2.43l2.64.72a10.13,10.13,0,0,1-1.95,3.09,13.43,13.43,0,0,1-3,2.43,15.66,15.66,0,0,1-8,2.16Zm12.24-17.4a14.36,14.36,0,0,0-1.23-5,13.46,13.46,0,0,0-2.7-3.93,12.23,12.23,0,0,0-3.81-2.58,11.94,11.94,0,0,0-9.24,0,12,12,0,0,0-3.81,2.58,12.32,12.32,0,0,0-2.64,4,15.19,15.19,0,0,0-1.17,5Z" transform="translate(-69.24 -360)"/><path class="cls-9" d="M458,414.9a10.65,10.65,0,0,1-7.29-2.79,8.93,8.93,0,0,1-2.2-3.06,9.34,9.34,0,0,1-.78-3.81,7.36,7.36,0,0,1,1-3.72,9.12,9.12,0,0,1,2.68-2.91,13.18,13.18,0,0,1,4.1-1.92,19.14,19.14,0,0,1,5.29-.69,29.3,29.3,0,0,1,5.07.45,25.5,25.5,0,0,1,4.59,1.23v-3.06a9.68,9.68,0,0,0-2.53-7.05A9,9,0,0,0,461,385a13.77,13.77,0,0,0-4.83,1,24.69,24.69,0,0,0-5.18,2.76l-1.15-2q6-4.08,11.41-4.08,5.63,0,8.88,3.27t3.24,9V410.1c0,1,.43,1.5,1.31,1.5v2.7a6,6,0,0,1-.63.09l-.56,0a2.41,2.41,0,0,1-1.92-.81,3.34,3.34,0,0,1-.85-1.95v-2.58a14,14,0,0,1-5.51,4.32A17.67,17.67,0,0,1,458,414.9Zm.59-2.4a15.29,15.29,0,0,0,6.39-1.32,11,11,0,0,0,4.48-3.48,4.08,4.08,0,0,0,1-2.4v-5.52a24.6,24.6,0,0,0-4.5-1.26,27.66,27.66,0,0,0-4.87-.42,16.51,16.51,0,0,0-4.25.51,11.1,11.1,0,0,0-3.3,1.41,6.35,6.35,0,0,0-2.13,2.19,5.47,5.47,0,0,0-.75,2.85,7.13,7.13,0,0,0,.6,2.94,6.89,6.89,0,0,0,1.67,2.37,8.13,8.13,0,0,0,2.55,1.56A8.68,8.68,0,0,0,458.58,412.5Z" transform="translate(-69.24 -360)"/><path class="cls-10" d="M482.76,370.5h3.07v37.62a3.79,3.79,0,0,0,1,2.76,3.63,3.63,0,0,0,2.73,1,10.22,10.22,0,0,0,1.59-.15,8.55,8.55,0,0,0,1.71-.45l.6,2.4a12.53,12.53,0,0,1-2.52.69,14.88,14.88,0,0,1-2.58.27,5.49,5.49,0,0,1-4-1.53,5.55,5.55,0,0,1-1.53-4.11Z" transform="translate(-69.24 -360)"/><path class="cls-11" d="M512,412.8l-.81.45a8.32,8.32,0,0,1-1.44.63,18,18,0,0,1-2,.54,10.78,10.78,0,0,1-2.34.24,7.64,7.64,0,0,1-2.37-.36,5.63,5.63,0,0,1-1.95-1.08,5.15,5.15,0,0,1-1.32-1.74,5.59,5.59,0,0,1-.48-2.4V385.56h-4.38V383.1h4.38V372.42h3V383.1h7.26v2.46h-7.26v22.8a3,3,0,0,0,1.2,2.61,4.49,4.49,0,0,0,2.7.87,7.53,7.53,0,0,0,3.21-.63q1.35-.63,1.65-.81Z" transform="translate(-69.24 -360)"/><path class="cls-12" d="M542.76,414.3h-3V396.9q0-11.58-7.74-11.58a10.16,10.16,0,0,0-3.75.72,12.5,12.5,0,0,0-3.42,2,14.74,14.74,0,0,0-2.79,3.09,13.58,13.58,0,0,0-1.8,3.81V414.3h-3V370.5h3v20a15.06,15.06,0,0,1,5.31-5.82,13.32,13.32,0,0,1,7.29-2.16,9.57,9.57,0,0,1,4.44,1,8.33,8.33,0,0,1,3.09,2.76,12.44,12.44,0,0,1,1.8,4.35,26.35,26.35,0,0,1,.57,5.73Z" transform="translate(-69.24 -360)"/><polygon class="cls-13" points="37.62 27.41 41.38 35.46 37.62 43.51 45.67 35.46 37.62 27.41"/><polygon class="cls-14" points="35.46 45.05 39.95 35.46 35.46 25.86 30.97 35.46 35.46 45.05"/><polygon class="cls-15" points="29.53 35.46 33.3 27.41 25.25 35.46 33.3 43.51 29.53 35.46"/><polygon class="cls-14" points="35.46 45.05 39.95 35.46 35.46 25.86 30.97 35.46 35.46 45.05"/><path class="cls-16" d="M104.7,360a35.46,35.46,0,1,0,35.45,35.46A35.5,35.5,0,0,0,104.7,360ZM89.15,395.46a15.55,15.55,0,1,1,18.11,15.81,20.15,20.15,0,0,1-2.06.11,20.4,20.4,0,0,1-5.83-.86A16,16,0,0,1,89.15,395.46Zm32,0a16.46,16.46,0,1,0-32.91,0,17.13,17.13,0,0,0,4.58,11.7A20.4,20.4,0,1,1,122,379.43a26.6,26.6,0,0,1,3.4,13c0,.43,0,.86,0,1.28a20.42,20.42,0,0,1-11.15,15.49A17.09,17.09,0,0,0,121.15,395.46Zm-16-26.08a21.58,21.58,0,1,0,18.39,32.81,26.75,26.75,0,1,1-6.84-29.43A21.42,21.42,0,0,0,105.2,369.38ZM104.7,429a33.58,33.58,0,0,1-33.22-28.95,28.28,28.28,0,1,0,17-33.93A33.54,33.54,0,1,1,104.7,429Z" transform="translate(-69.24 -360)"/></svg>